# xmcd
#
# Track frame offsets:
#	150
#	19200
#	40507
#	60427
#	79167
#	100400
#
# Disc length: 1563 seconds
#
# Revision: 1
# Processed by: cddbd v1.5.1PL0 Copyright (c) Steve Scherf et al.
# Submitted via: CDex 1.50Beta5
#
DISCID=3f061906
DTITLE=TPD DASH!! - DASH!!
DYEAR=1993
DGENRE=Pop
TTITLE0=NAI
TTITLE1=東京ハッカーズ・ナイトグルーブ
TTITLE2=真夜中の自転車
TTITLE3=We Are The Dreamer
TTITLE4=きのうの雨は花と樹のため
TTITLE5=天使のらくがき
EXTD=
EXTT0=
EXTT1=
EXTT2=
EXTT3=
EXTT4=
EXTT5=
PLAYORDER=
